<svg width="21" height="20" viewBox="0 0 21 20" fill="none" xmlns="http://www.w3.org/2000/svg">
<path d="M10.3334 2.5C14.4584 2.5 17.8334 5.875 17.8334 10C17.8334 14.125 14.4584 17.5 10.3334 17.5C6.20837 17.5 2.83337 14.125 2.83337 10C2.83337 5.875 6.20837 2.5 10.3334 2.5ZM10.3334 1.25C5.52087 1.25 1.58337 5.1875 1.58337 10C1.58337 14.8125 5.52087 18.75 10.3334 18.75C15.1459 18.75 19.0834 14.8125 19.0834 10C19.0834 5.1875 15.1459 1.25 10.3334 1.25Z" fill="white"/>
<path d="M5.33337 9.375H15.3334V10.625H5.33337V9.375Z" fill="white"/>
</svg>
